<?xml version="1.0" encoding="iso-8859-1"?>
<!-- Generator: Adobe Illustrator 19.0.0, SVG Export Plug-In . SVG Version: 6.00 Build 0)  -->
<svg version="1.1" id="Layer_1" xmlns="http://www.w3.org/2000/svg" xmlns:xlink="http://www.w3.org/1999/xlink" x="0px" y="0px"
	 viewBox="0 0 512 512" style="enable-background:new 0 0 512 512;" xml:space="preserve">
<path style="fill:#707487;" d="M256,423.724c-92.483,0-167.724-75.242-167.724-167.724S163.518,88.276,256,88.276
	S423.724,163.518,423.724,256S348.483,423.724,256,423.724z M256,105.931c-82.75,0-150.069,67.319-150.069,150.069
	S173.25,406.069,256,406.069S406.069,338.75,406.069,256S338.75,105.931,256,105.931z"/>
<circle style="fill:#FF6464;" cx="256" cy="256" r="22.069"/>
<g>
	<path style="fill:#464655;" d="M44.138,264.828H8.828C3.953,264.828,0,260.875,0,256s3.953-8.828,8.828-8.828h35.31
		c4.875,0,8.828,3.953,8.828,8.828S49.013,264.828,44.138,264.828z"/>
	<path style="fill:#464655;" d="M150.069,264.828H79.448c-4.875,0-8.828-3.953-8.828-8.828s3.953-8.828,8.828-8.828h70.621
		c4.875,0,8.828,3.953,8.828,8.828S154.944,264.828,150.069,264.828z"/>
	<path style="fill:#464655;" d="M503.172,264.828h-35.31c-4.875,0-8.828-3.953-8.828-8.828s3.953-8.828,8.828-8.828h35.31
		c4.875,0,8.828,3.953,8.828,8.828S508.047,264.828,503.172,264.828z"/>
	<path style="fill:#464655;" d="M432.552,264.828h-70.621c-4.875,0-8.828-3.953-8.828-8.828s3.953-8.828,8.828-8.828h70.621
		c4.875,0,8.828,3.953,8.828,8.828S437.427,264.828,432.552,264.828z"/>
	<path style="fill:#464655;" d="M256,512c-4.875,0-8.828-3.953-8.828-8.828v-35.31c0-4.875,3.953-8.828,8.828-8.828
		s8.828,3.953,8.828,8.828v35.31C264.828,508.047,260.875,512,256,512z"/>
	<path style="fill:#464655;" d="M256,441.379c-4.875,0-8.828-3.953-8.828-8.828v-70.621c0-4.875,3.953-8.828,8.828-8.828
		s8.828,3.953,8.828,8.828v70.621C264.828,437.427,260.875,441.379,256,441.379z"/>
	<path style="fill:#464655;" d="M256,52.966c-4.875,0-8.828-3.953-8.828-8.828V8.828C247.172,3.953,251.125,0,256,0
		s8.828,3.953,8.828,8.828v35.31C264.828,49.013,260.875,52.966,256,52.966z"/>
	<path style="fill:#464655;" d="M256,158.897c-4.875,0-8.828-3.953-8.828-8.828V79.448c0-4.875,3.953-8.828,8.828-8.828
		s8.828,3.953,8.828,8.828v70.621C264.828,154.944,260.875,158.897,256,158.897z"/>
</g>
<path style="fill:#5B5D6E;" d="M256,335.448c-43.806,0-79.448-35.642-79.448-79.448s35.642-79.448,79.448-79.448
	s79.448,35.642,79.448,79.448S299.806,335.448,256,335.448z M256,194.207c-34.073,0-61.793,27.72-61.793,61.793
	s27.72,61.793,61.793,61.793s61.793-27.72,61.793-61.793S290.073,194.207,256,194.207z"/>
<path style="fill:#959CB3;" d="M256,335.448c-43.806,0-79.448-35.642-79.448-79.448s35.642-79.448,79.448-79.448
	s79.448,35.642,79.448,79.448S299.806,335.448,256,335.448z M256,194.207c-34.073,0-61.793,27.72-61.793,61.793
	s27.72,61.793,61.793,61.793s61.793-27.72,61.793-61.793S290.073,194.207,256,194.207z"/>
<path style="fill:#5B5D6E;" d="M256,476.69c-121.689,0-220.69-99-220.69-220.69s99-220.69,220.69-220.69s220.69,99,220.69,220.69
	S377.689,476.69,256,476.69z M256,52.966C144.047,52.966,52.966,144.047,52.966,256S144.047,459.034,256,459.034
	S459.034,367.953,459.034,256S367.953,52.966,256,52.966z"/>
<g>
</g>
<g>
</g>
<g>
</g>
<g>
</g>
<g>
</g>
<g>
</g>
<g>
</g>
<g>
</g>
<g>
</g>
<g>
</g>
<g>
</g>
<g>
</g>
<g>
</g>
<g>
</g>
<g>
</g>
</svg>
