<?xml version="1.0" encoding="iso-8859-1"?>
<!-- Generator: Adobe Illustrator 19.0.0, SVG Export Plug-In . SVG Version: 6.00 Build 0)  -->
<svg version="1.1" id="Capa_1" xmlns="http://www.w3.org/2000/svg" xmlns:xlink="http://www.w3.org/1999/xlink" x="0px" y="0px"
	 viewBox="0 0 512 512" style="enable-background:new 0 0 512 512;" xml:space="preserve">
<polygon style="fill:#FE8944;" points="21.963,490.037 43.925,512 266.127,289.798 244.165,245.873 "/>
<polygon style="fill:#FEB158;" points="222.202,245.873 0,468.075 21.963,490.037 256,256 "/>
<polygon style="fill:#D24B1D;" points="244.165,267.835 266.127,289.798 305.78,250.145 283.817,206.22 "/>
<path style="fill:#FEB158;" d="M283.817,228.183l-21.963-21.963L283.817,228.183z"/>
<g>
	<polygon style="fill:#FE8944;" points="294.798,217.202 261.854,206.22 222.202,245.873 244.165,267.835 	"/>
	<path style="fill:#FE8944;" d="M505.145,189.9l-91.522-91.522L314,126.915l-30.183,101.268l21.963,21.963l0,0l69.56,69.56
		c9.14,9.14,23.959,9.14,33.099,0l96.707-96.707C514.285,213.858,514.285,199.039,505.145,189.9z"/>
</g>
<path style="fill:#FEB158;" d="M413.623,98.377L322.1,6.855c-9.14-9.14-23.959-9.14-33.099,0l-96.707,96.707
	c-9.14,9.14-9.14,23.959,0,33.099l69.56,69.56l21.963,21.963L413.623,98.377z"/>
<g>
</g>
<g>
</g>
<g>
</g>
<g>
</g>
<g>
</g>
<g>
</g>
<g>
</g>
<g>
</g>
<g>
</g>
<g>
</g>
<g>
</g>
<g>
</g>
<g>
</g>
<g>
</g>
<g>
</g>
</svg>
