<?xml version="1.0" encoding="iso-8859-1"?>
<!-- Generator: Adobe Illustrator 19.0.0, SVG Export Plug-In . SVG Version: 6.00 Build 0)  -->
<svg version="1.1" id="Capa_1" xmlns="http://www.w3.org/2000/svg" xmlns:xlink="http://www.w3.org/1999/xlink" x="0px" y="0px"
	 viewBox="0 0 480.281 480.281" style="enable-background:new 0 0 480.281 480.281;" xml:space="preserve">
<path style="fill:#808285;" d="M353.475,70.242L291.251,8.018l-90.512,90.504l62.224,62.224l28.288,28.288l90.512,90.512
	l90.504-90.512l-62.224-62.224L353.475,70.242z"/>
<path style="fill:#754C29;" d="M12.691,411.026c-6.246,6.248-6.246,16.376,0,22.624l33.944,33.944
	c6.248,6.246,16.376,6.246,22.624,0l250.28-250.272l-28.28-28.288l-28.296-28.288L12.691,411.026z"/>
<path style="fill:#FFAF46;" d="M262.963,160.746l28.288,28.288L262.963,160.746z"/>
<path style="fill:#754C29;" d="M421.355,115.498c6.25-6.247,6.252-16.378,0.005-22.627c-0.002-0.002-0.003-0.003-0.005-0.005
	L387.419,58.93c-6.247-6.25-16.378-6.252-22.627-0.005c-0.002,0.002-0.003,0.003-0.005,0.005l-11.312,11.312l56.568,56.568
	L421.355,115.498z"/>
<path style="fill:#231F20;" d="M477.939,183.378l-56.568-56.568l5.656-5.656c9.373-9.372,9.375-24.568,0.003-33.941
	c-0.001-0.001-0.002-0.002-0.003-0.003l-33.952-33.936c-9.372-9.373-24.568-9.375-33.941-0.003
	c-0.001,0.001-0.002,0.002-0.003,0.003l-5.656,5.656L296.907,2.346c-3.124-3.123-8.188-3.123-11.312,0l-90.512,90.52
	c-3.123,3.124-3.123,8.188,0,11.312l56.568,56.568L7.027,405.37c-9.369,9.372-9.369,24.564,0,33.936l33.952,33.944
	c9.372,9.369,24.564,9.369,33.936,0l244.624-244.616l56.576,56.568c3.124,3.123,8.188,3.123,11.312,0l90.512-90.512
	C481.062,191.566,481.062,186.502,477.939,183.378L477.939,183.378z M370.443,64.586c3.122-3.126,8.188-3.129,11.314-0.006
	c0.002,0.002,0.004,0.004,0.006,0.006l33.936,33.936c3.123,3.124,3.123,8.188,0,11.312l-5.656,5.656l-35.56-35.544l-9.696-9.696
	L370.443,64.586z M308.219,217.322L63.603,461.938c-3.124,3.123-8.188,3.123-11.312,0l-33.944-33.944
	c-3.123-3.124-3.123-8.188,0-11.312l244.616-244.616L308.219,217.322z M381.763,268.234L212.051,98.522l79.2-79.2l169.704,169.712
	L381.763,268.234z"/>
<g>
</g>
<g>
</g>
<g>
</g>
<g>
</g>
<g>
</g>
<g>
</g>
<g>
</g>
<g>
</g>
<g>
</g>
<g>
</g>
<g>
</g>
<g>
</g>
<g>
</g>
<g>
</g>
<g>
</g>
</svg>
